<?xml version="1.0" encoding="utf-8"?>
<!-- Generator: Adobe Illustrator 19.1.0, SVG Export Plug-In . SVG Version: 6.00 Build 0)  -->
<svg version="1.1" id="Layer_1" xmlns="http://www.w3.org/2000/svg" xmlns:xlink="http://www.w3.org/1999/xlink" x="0px" y="0px"
	 viewBox="-277 368 57 57" style="enable-background:new -277 368 57 57;" xml:space="preserve">
<style type="text/css">
	.st0{fill:#FFFFFF;}
</style>
<path class="st0" d="M-248.5,370c1.8,0,3.5,1,4.3,2.7l0.6,1.1l0,0l21,42v0.1v0.1c0.1,0.2,0.2,0.3,0.3,0.5v0.1
	c0.2,0.6,0.4,1.2,0.4,1.8c0,2.6-2.1,4.7-4.7,4.7h-21.9h-21.8c-2.6-0.1-4.7-2.2-4.7-4.8c0-0.7,0.2-1.4,0.5-2.1l0.4-0.8l20.8-41.6l0,0
	l0.5-1.1C-252,371-250.3,370-248.5,370 M-248.5,368c-2.7,0-5,1.5-6.1,3.8l0,0l-21.7,43.5l0,0c-0.4,0.9-0.7,1.9-0.7,3
	c0,3.7,3,6.7,6.7,6.7h21.8l0,0h21.8l0,0c3.7,0,6.7-3,6.7-6.7c0-0.9-0.2-1.8-0.5-2.5l0,0l0,0c-0.1-0.3-0.3-0.5-0.4-0.8l-21.5-43.2
	l0,0C-243.5,369.5-245.8,368-248.5,368"/>
<path class="st0" d="M-249.7,414.5c-0.7,0-1.3-0.6-1.3-1.3v-2c0-0.7,0.6-1.3,1.3-1.3h2.3c0.7,0,1.3,0.6,1.3,1.3v2
	c0,0.7-0.6,1.3-1.3,1.3H-249.7z M-249.7,404.3c-0.7,0-1.3-0.6-1.3-1.3v-15.3c0-0.7,0.6-1.3,1.3-1.3h2.3c0.7,0,1.3,0.6,1.3,1.3v15.2
	c0,0.7-0.6,1.3-1.3,1.3L-249.7,404.3L-249.7,404.3z"/>
</svg>
